<?xml version="1.0" encoding="UTF-8"?>
<svg xmlns="http://www.w3.org/2000/svg" viewBox="0 0 2048 946" fill="currentColor" role="img" aria-label="OHA - Ocean Hub Amed">
  <title>OHA - Ocean Hub Amed</title>
  <path d="M 1588.65 177.422 C 1594.81 177.153 1601.97 177.017 1608.07 177.159 C 1624.75 177.684 1641.48 175.434 1657.99 178.374 C 1682.04 182.655 1678.09 207.43 1683.85 225.232 C 1688.04 238.213 1693.43 250.959 1698.74 263.391 L 1819.23 540.318 L 1874.79 668.646 C 1887.54 698.614 1900.38 731.287 1915.2 760.066 C 1919.61 768.645 1932.54 785.504 1938.73 795.51 C 1917.48 796.755 1891.66 795.708 1870.15 796.317 C 1859.86 796.609 1827.6 796.996 1818.59 795.124 C 1813.3 789.345 1816.88 769.943 1814.01 759.704 C 1805.01 727.589 1789.05 694.12 1775.18 663.707 C 1762.12 662.509 1743.16 663.031 1729.64 663.069 L 1656.17 663.246 C 1594.86 663.361 1527.93 661.827 1467.4 664.199 C 1466.37 672.753 1460.36 683.837 1457.21 692.275 C 1448.25 716.26 1435.15 741.456 1431.79 766.889 C 1430.73 774.97 1430.94 786.55 1430.94 794.82 C 1412.62 796.728 1386.19 795.753 1367.3 795.998 C 1354.86 796.16 1326.89 796.532 1315.68 794.709 C 1321.78 781.157 1332.21 766.416 1339.89 752.615 C 1353.14 728.774 1362.76 686.479 1377.42 665.341 L 1376.55 665.223 C 1363.59 663.528 1266.74 661.086 1258.92 667.104 C 1260.68 670.287 1262.67 667.434 1265.95 670.885 C 1268.08 703.894 1265.61 736.763 1274.23 769.322 C 1275.9 775.631 1280.42 788.602 1277.63 794.503 C 1270.29 797.296 1172.16 796.913 1168.01 794.147 C 1166.94 791.031 1167.36 785.96 1168.21 782.801 C 1178.68 743.91 1175.53 704.532 1179.12 665.174 C 1121.59 664.119 1064.06 663.819 1006.52 664.273 C 986.865 664.29 903.138 663.133 890.867 667.488 C 892.812 668.756 895.002 669.69 895.552 671.922 C 898.066 686.13 897.947 705.822 898.147 720.126 C 898.327 732.991 910.262 786.469 907.187 793.946 C 897.565 798.811 834.12 794.948 818.3 796.139 C 795.278 797.873 794.24 794.817 799.251 773.881 C 804.102 753.618 806.129 728.438 807.283 707.418 C 808.008 694.005 806.82 678.339 809.259 665.258 C 776.56 663.87 729.119 663.101 697.094 665.217 C 687.965 670.414 654.348 703.447 645.949 711.752 C 590.735 766.347 541.757 791.4 466.41 805.442 C 408.713 813.415 352.195 811.404 296.792 791.803 C 219.662 764.516 151.201 705.563 115.758 631.413 C 216.688 629.616 321.7 631.822 423.125 631.725 L 1279.67 632.329 C 1438.83 632.529 1602.77 634.704 1761.42 631.687 C 1728.75 550.739 1693.64 470.648 1660.61 389.825 C 1647.87 358.654 1635.57 327.127 1622.2 296.272 C 1619.15 306.446 1610.45 326.037 1606.2 336.459 L 1577.51 407.688 C 1560.53 449.647 1543.33 491.515 1525.9 533.291 C 1518.41 551.509 1511.1 572.544 1503.04 590.081 C 1478.46 591.038 1433.28 591.184 1408.93 589.993 C 1416.27 566.153 1433.54 528.694 1443.68 504.454 L 1518.01 324.821 C 1532.5 289.074 1549.18 255.159 1558.5 217.356 C 1564.41 193.374 1559.91 179.645 1588.65 177.422 z"/>
  <path d="M 247.39 680.49 C 344.746 679.773 442.106 679.941 539.459 680.996 C 543.442 683.706 546.88 683.186 551.971 683.513 C 548.128 684.443 536.079 684.163 531.5 684.167 L 302.715 683.963 C 284.093 683.828 237.577 685.806 221.621 683.292 C 230.769 681.505 238.16 681.11 247.39 680.49 z"/>
  <path d="M 397.706 157.45 C 432.772 155.864 467.853 160.221 501.466 170.334 C 683.176 226.843 769.677 410.83 714.033 589.46 C 687.056 591.731 638.284 590.129 609.761 589.98 C 680.471 443.084 604.95 253.427 430.908 235.94 C 426.899 235.537 422.854 235.282 418.833 235.007 C 232.971 229.325 135.631 414.312 199.734 574.768 C 201.764 579.849 203.762 584.594 206.218 589.5 C 170.649 590.377 135.07 590.751 99.4907 590.622 C 65.3766 464.149 87.1922 338.686 183.77 245.76 C 243.381 188.403 315.837 161.152 397.706 157.45 z"/>
  <path d="M 808.901 178.4 C 832.871 177.469 857.215 178.255 881.222 177.954 C 889.893 177.845 899.347 177.873 907.925 178.919 C 907.848 187.425 904.921 202.134 903.443 211.037 C 901.518 222.757 899.941 234.532 898.716 246.345 C 895.578 275.712 897.02 312.191 896.581 342.256 C 896.338 358.887 895.218 396.263 897.396 410.746 C 899.912 413.825 904.414 419.424 908.277 420.328 C 919.903 423.051 934.328 422.111 946.25 422.074 L 1000.38 421.912 C 1048.56 421.826 1096.77 422.012 1144.93 421.795 C 1161.59 421.72 1177.86 421.833 1177.88 401.056 C 1177.93 388.016 1178.31 375.063 1178.09 362.006 C 1177.19 307.185 1183.41 250.564 1168 197.188 C 1166.46 191.861 1164.85 184.335 1169.06 180.024 C 1182.36 174.623 1227.8 179.952 1244.26 178.355 C 1292.34 173.692 1275.72 186.153 1270.44 221.247 C 1265.93 251.164 1266.09 283.533 1265.91 314.217 L 1265.59 412.75 L 1265.36 589.955 C 1236.5 590.387 1207.64 590.442 1178.77 590.12 C 1178.25 575.301 1180.7 512.063 1173.65 503.765 C 1170.68 500.271 1166.75 499.374 1162.36 499.097 C 1149.28 498.269 1135.87 498.708 1122.74 498.539 C 1083.33 498.265 1043.91 498.364 1004.49 498.836 L 942.885 498.846 C 897.675 498.84 897.018 494.058 896.661 539.988 L 896.164 589.972 C 866.98 589.893 837.891 590.593 808.553 590.373 C 807.487 479.294 809.921 367.942 808.622 256.853 C 808.494 245.887 804.708 227.85 802.624 217.09 C 800.43 205.766 796.15 195.886 795.112 183.778 C 798.725 177.982 802.614 178.819 808.901 178.4 z"/>
  <path d="m 1265.8183,671.16459 c -0.2128,-2.23729 0.1723,-4.52076 0,-6.76123 -0.034,-0.44943 -0.1219,-3.10349 -0.6762,-3.38061 -0.9236,-0.46173 -3.173,0.49935 -4.0571,0.67614 -0.1475,0.0295 -0.3257,-0.0835 -0.4508,0 -0.1536,0.10239 -1.3681,1.81877 -1.5777,2.02836 -0.5617,0.56165 -1.2447,0.91156 -1.5778,1.57762 -0.2307,0.46107 0.5799,1.77225 0.6762,2.25374 0.1444,0.72235 -0.1444,1.5314 0,2.25376 0.065,0.32629 0.3855,0.80057 0.4508,1.12685 0.044,0.22092 -0.084,0.46688 0,0.67614 0.079,0.19727 0.3233,0.28074 0.4508,0.45074 0.1007,0.13439 0.1065,0.33196 0.2254,0.45074 0.168,0.16806 0.4785,0.0935 0.6761,0.22537 0.5884,0.39218 0.8718,1.11695 1.5778,1.35226 1.4099,0.46991 3.6464,-2.18777 4.2825,-2.92988 z"/>
</svg>
